<?xml version="1.0" encoding="UTF-8" standalone="no"?>
<!DOCTYPE svg PUBLIC "-//W3C//DTD SVG 1.0//EN" "http://www.w3.org/TR/2001/PR-SVG-20010719/DTD/svg10.dtd">
<svg width="60cm" height="27cm" viewBox="-181 -239 1196 535" xmlns="http://www.w3.org/2000/svg" xmlns:xlink="http://www.w3.org/1999/xlink">
  <g>
    <rect style="fill: #b3d6c6" x="-169.614" y="-237" width="1173" height="532"/>
    <path style="fill: #b3d6c6" d="M -169.614,-237 A 10,10 0 0 0 -179.614,-227 L -169.614,-227 z"/>
    <path style="fill: #b3d6c6" d="M 1013.39,-227 A 10,10 0 0 0 1003.39,-237 L 1003.39,-227 z"/>
    <rect style="fill: #b3d6c6" x="-179.614" y="-227" width="1193" height="512"/>
    <path style="fill: #b3d6c6" d="M -179.614,285 A 10,10 0 0 0 -169.614,295 L -169.614,285 z"/>
    <path style="fill: #b3d6c6" d="M 1003.39,295 A 10,10 0 0 0 1013.39,285 L 1003.39,285 z"/>
    <line style="fill: none; fill-opacity:0; stroke-width: 2; stroke: #ffffff" x1="-169.614" y1="-237" x2="1003.39" y2="-237"/>
    <line style="fill: none; fill-opacity:0; stroke-width: 2; stroke: #ffffff" x1="-169.614" y1="295" x2="1003.39" y2="295"/>
    <path style="fill: none; fill-opacity:0; stroke-width: 2; stroke: #ffffff" d="M -169.614,-237 A 10,10 0 0 0 -179.614,-227"/>
    <path style="fill: none; fill-opacity:0; stroke-width: 2; stroke: #ffffff" d="M 1013.39,-227 A 10,10 0 0 0 1003.39,-237"/>
    <line style="fill: none; fill-opacity:0; stroke-width: 2; stroke: #ffffff" x1="-179.614" y1="-227" x2="-179.614" y2="285"/>
    <line style="fill: none; fill-opacity:0; stroke-width: 2; stroke: #ffffff" x1="1013.39" y1="-227" x2="1013.39" y2="285"/>
    <path style="fill: none; fill-opacity:0; stroke-width: 2; stroke: #ffffff" d="M -179.614,285 A 10,10 0 0 0 -169.614,295"/>
    <path style="fill: none; fill-opacity:0; stroke-width: 2; stroke: #ffffff" d="M 1003.39,295 A 10,10 0 0 0 1013.39,285"/>
    <text font-size="12.8" style="fill: #000000;text-anchor:middle;font-family:sans-serif;font-style:normal;font-weight:normal" x="416.886" y="32.9002">
      <tspan x="416.886" y="32.9002"></tspan>
    </text>
  </g>
  <g>
    <rect style="fill: #00cd78" x="244.1" y="-158" width="82.287" height="260"/>
    <path style="fill: #00cd78" d="M 244.1,-158 A 10,10 0 0 0 234.1,-148 L 244.1,-148 z"/>
    <path style="fill: #00cd78" d="M 336.387,-148 A 10,10 0 0 0 326.387,-158 L 326.387,-148 z"/>
    <rect style="fill: #00cd78" x="234.1" y="-148" width="102.287" height="240"/>
    <path style="fill: #00cd78" d="M 234.1,92 A 10,10 0 0 0 244.1,102 L 244.1,92 z"/>
    <path style="fill: #00cd78" d="M 326.387,102 A 10,10 0 0 0 336.387,92 L 326.387,92 z"/>
    <line style="fill: none; fill-opacity:0; stroke-width: 4; stroke: #ffffff" x1="244.1" y1="-158" x2="326.387" y2="-158"/>
    <line style="fill: none; fill-opacity:0; stroke-width: 4; stroke: #ffffff" x1="244.1" y1="102" x2="326.387" y2="102"/>
    <path style="fill: none; fill-opacity:0; stroke-width: 4; stroke: #ffffff" d="M 244.1,-158 A 10,10 0 0 0 234.1,-148"/>
    <path style="fill: none; fill-opacity:0; stroke-width: 4; stroke: #ffffff" d="M 336.387,-148 A 10,10 0 0 0 326.387,-158"/>
    <line style="fill: none; fill-opacity:0; stroke-width: 4; stroke: #ffffff" x1="234.1" y1="-148" x2="234.1" y2="92"/>
    <line style="fill: none; fill-opacity:0; stroke-width: 4; stroke: #ffffff" x1="336.387" y1="-148" x2="336.387" y2="92"/>
    <path style="fill: none; fill-opacity:0; stroke-width: 4; stroke: #ffffff" d="M 234.1,92 A 10,10 0 0 0 244.1,102"/>
    <path style="fill: none; fill-opacity:0; stroke-width: 4; stroke: #ffffff" d="M 326.387,102 A 10,10 0 0 0 336.387,92"/>
    <text font-size="12.8" style="fill: #ffffff;text-anchor:middle;font-family:sans-serif;font-style:normal;font-weight:700" x="285.243" y="-32.1">
      <tspan x="285.243" y="-32.1">AMQP</tspan>
      <tspan x="285.243" y="-16.1">bus</tspan>
    </text>
  </g>
  <g>
    <rect style="fill: #ffb400" x="407" y="-38.25" width="325.386" height="126.418"/>
    <path style="fill: #ffb400" d="M 407,-38.25 A 10,10 0 0 0 397,-28.25 L 407,-28.25 z"/>
    <path style="fill: #ffb400" d="M 742.386,-28.25 A 10,10 0 0 0 732.386,-38.25 L 732.386,-28.25 z"/>
    <rect style="fill: #ffb400" x="397" y="-28.25" width="345.386" height="106.418"/>
    <path style="fill: #ffb400" d="M 397,78.168 A 10,10 0 0 0 407,88.168 L 407,78.168 z"/>
    <path style="fill: #ffb400" d="M 732.386,88.168 A 10,10 0 0 0 742.386,78.168 L 732.386,78.168 z"/>
    <line style="fill: none; fill-opacity:0; stroke-width: 4; stroke: #ffffff" x1="407" y1="-38.25" x2="732.386" y2="-38.25"/>
    <line style="fill: none; fill-opacity:0; stroke-width: 4; stroke: #ffffff" x1="407" y1="88.168" x2="732.386" y2="88.168"/>
    <path style="fill: none; fill-opacity:0; stroke-width: 4; stroke: #ffffff" d="M 407,-38.25 A 10,10 0 0 0 397,-28.25"/>
    <path style="fill: none; fill-opacity:0; stroke-width: 4; stroke: #ffffff" d="M 742.386,-28.25 A 10,10 0 0 0 732.386,-38.25"/>
    <line style="fill: none; fill-opacity:0; stroke-width: 4; stroke: #ffffff" x1="397" y1="-28.25" x2="397" y2="78.168"/>
    <line style="fill: none; fill-opacity:0; stroke-width: 4; stroke: #ffffff" x1="742.386" y1="-28.25" x2="742.386" y2="78.168"/>
    <path style="fill: none; fill-opacity:0; stroke-width: 4; stroke: #ffffff" d="M 397,78.168 A 10,10 0 0 0 407,88.168"/>
    <path style="fill: none; fill-opacity:0; stroke-width: 4; stroke: #ffffff" d="M 732.386,88.168 A 10,10 0 0 0 742.386,78.168"/>
    <text font-size="14.1111" style="fill: #ffffff;text-anchor:middle;font-family:sans-serif;font-style:normal;font-weight:700" x="569.693" y="20.4201">
      <tspan x="569.693" y="20.4201">Watcher</tspan>
      <tspan x="569.693" y="38.059">Decision Engine</tspan>
    </text>
  </g>
  <g>
    <line style="fill: none; fill-opacity:0; stroke-width: 2; stroke-dasharray: 6; stroke: #000000" x1="346.122" y1="37.0905" x2="387.264" y2="37.4729"/>
    <polygon style="fill: #000000" points="338.622,37.0208 348.668,32.1139 346.122,37.0905 348.575,42.1135 "/>
    <polygon style="fill: none; fill-opacity:0; stroke-width: 2; stroke: #000000" points="338.622,37.0208 348.668,32.1139 346.122,37.0905 348.575,42.1135 "/>
    <polygon style="fill: #000000" points="394.764,37.5426 384.718,42.4495 387.264,37.4729 384.811,32.4499 "/>
    <polygon style="fill: none; fill-opacity:0; stroke-width: 2; stroke: #000000" points="394.764,37.5426 384.718,42.4495 387.264,37.4729 384.811,32.4499 "/>
  </g>
  <g>
    <rect style="fill: #ffb400" x="407" y="-159" width="160" height="89"/>
    <path style="fill: #ffb400" d="M 407,-159 A 10,10 0 0 0 397,-149 L 407,-149 z"/>
    <path style="fill: #ffb400" d="M 577,-149 A 10,10 0 0 0 567,-159 L 567,-149 z"/>
    <rect style="fill: #ffb400" x="397" y="-149" width="180" height="69"/>
    <path style="fill: #ffb400" d="M 397,-80 A 10,10 0 0 0 407,-70 L 407,-80 z"/>
    <path style="fill: #ffb400" d="M 567,-70 A 10,10 0 0 0 577,-80 L 567,-80 z"/>
    <line style="fill: none; fill-opacity:0; stroke-width: 4; stroke: #ffffff" x1="407" y1="-159" x2="567" y2="-159"/>
    <line style="fill: none; fill-opacity:0; stroke-width: 4; stroke: #ffffff" x1="407" y1="-70" x2="567" y2="-70"/>
    <path style="fill: none; fill-opacity:0; stroke-width: 4; stroke: #ffffff" d="M 407,-159 A 10,10 0 0 0 397,-149"/>
    <path style="fill: none; fill-opacity:0; stroke-width: 4; stroke: #ffffff" d="M 577,-149 A 10,10 0 0 0 567,-159"/>
    <line style="fill: none; fill-opacity:0; stroke-width: 4; stroke: #ffffff" x1="397" y1="-149" x2="397" y2="-80"/>
    <line style="fill: none; fill-opacity:0; stroke-width: 4; stroke: #ffffff" x1="577" y1="-149" x2="577" y2="-80"/>
    <path style="fill: none; fill-opacity:0; stroke-width: 4; stroke: #ffffff" d="M 397,-80 A 10,10 0 0 0 407,-70"/>
    <path style="fill: none; fill-opacity:0; stroke-width: 4; stroke: #ffffff" d="M 567,-70 A 10,10 0 0 0 577,-80"/>
    <text font-size="14.1111" style="fill: #ffffff;text-anchor:middle;font-family:sans-serif;font-style:normal;font-weight:700" x="487" y="-119.039">
      <tspan x="487" y="-119.039">Watcher</tspan>
      <tspan x="487" y="-101.4">Actions Applier</tspan>
    </text>
  </g>
  <g>
    <rect style="fill: #ffb400" x="63.086" y="-136.5" width="70.7" height="157"/>
    <path style="fill: #ffb400" d="M 63.086,-136.5 A 10,10 0 0 0 53.086,-126.5 L 63.086,-126.5 z"/>
    <path style="fill: #ffb400" d="M 143.786,-126.5 A 10,10 0 0 0 133.786,-136.5 L 133.786,-126.5 z"/>
    <rect style="fill: #ffb400" x="53.086" y="-126.5" width="90.7" height="137"/>
    <path style="fill: #ffb400" d="M 53.086,10.5 A 10,10 0 0 0 63.086,20.5 L 63.086,10.5 z"/>
    <path style="fill: #ffb400" d="M 133.786,20.5 A 10,10 0 0 0 143.786,10.5 L 133.786,10.5 z"/>
    <line style="fill: none; fill-opacity:0; stroke-width: 4; stroke: #ffffff" x1="63.086" y1="-136.5" x2="133.786" y2="-136.5"/>
    <line style="fill: none; fill-opacity:0; stroke-width: 4; stroke: #ffffff" x1="63.086" y1="20.5" x2="133.786" y2="20.5"/>
    <path style="fill: none; fill-opacity:0; stroke-width: 4; stroke: #ffffff" d="M 63.086,-136.5 A 10,10 0 0 0 53.086,-126.5"/>
    <path style="fill: none; fill-opacity:0; stroke-width: 4; stroke: #ffffff" d="M 143.786,-126.5 A 10,10 0 0 0 133.786,-136.5"/>
    <line style="fill: none; fill-opacity:0; stroke-width: 4; stroke: #ffffff" x1="53.086" y1="-126.5" x2="53.086" y2="10.5"/>
    <line style="fill: none; fill-opacity:0; stroke-width: 4; stroke: #ffffff" x1="143.786" y1="-126.5" x2="143.786" y2="10.5"/>
    <path style="fill: none; fill-opacity:0; stroke-width: 4; stroke: #ffffff" d="M 53.086,10.5 A 10,10 0 0 0 63.086,20.5"/>
    <path style="fill: none; fill-opacity:0; stroke-width: 4; stroke: #ffffff" d="M 133.786,20.5 A 10,10 0 0 0 143.786,10.5"/>
    <text font-size="14.1111" style="fill: #ffffff;text-anchor:middle;font-family:sans-serif;font-style:normal;font-weight:700" x="98.436" y="-62.5389">
      <tspan x="98.436" y="-62.5389">Watcher</tspan>
      <tspan x="98.436" y="-44.9">API</tspan>
    </text>
  </g>
  <g>
    <rect style="fill: #ffb400" x="-138.614" y="-124.5" width="105" height="69.1"/>
    <path style="fill: #ffb400" d="M -138.614,-124.5 A 10,10 0 0 0 -148.614,-114.5 L -138.614,-114.5 z"/>
    <path style="fill: #ffb400" d="M -23.614,-114.5 A 10,10 0 0 0 -33.614,-124.5 L -33.614,-114.5 z"/>
    <rect style="fill: #ffb400" x="-148.614" y="-114.5" width="125" height="49.1"/>
    <path style="fill: #ffb400" d="M -148.614,-65.4 A 10,10 0 0 0 -138.614,-55.4 L -138.614,-65.4 z"/>
    <path style="fill: #ffb400" d="M -33.614,-55.4 A 10,10 0 0 0 -23.614,-65.4 L -33.614,-65.4 z"/>
    <line style="fill: none; fill-opacity:0; stroke-width: 4; stroke: #ffffff" x1="-138.614" y1="-124.5" x2="-33.614" y2="-124.5"/>
    <line style="fill: none; fill-opacity:0; stroke-width: 4; stroke: #ffffff" x1="-138.614" y1="-55.4" x2="-33.614" y2="-55.4"/>
    <path style="fill: none; fill-opacity:0; stroke-width: 4; stroke: #ffffff" d="M -138.614,-124.5 A 10,10 0 0 0 -148.614,-114.5"/>
    <path style="fill: none; fill-opacity:0; stroke-width: 4; stroke: #ffffff" d="M -23.614,-114.5 A 10,10 0 0 0 -33.614,-124.5"/>
    <line style="fill: none; fill-opacity:0; stroke-width: 4; stroke: #ffffff" x1="-148.614" y1="-114.5" x2="-148.614" y2="-65.4"/>
    <line style="fill: none; fill-opacity:0; stroke-width: 4; stroke: #ffffff" x1="-23.614" y1="-114.5" x2="-23.614" y2="-65.4"/>
    <path style="fill: none; fill-opacity:0; stroke-width: 4; stroke: #ffffff" d="M -148.614,-65.4 A 10,10 0 0 0 -138.614,-55.4"/>
    <path style="fill: none; fill-opacity:0; stroke-width: 4; stroke: #ffffff" d="M -33.614,-55.4 A 10,10 0 0 0 -23.614,-65.4"/>
    <text font-size="14.1111" style="fill: #ffffff;text-anchor:middle;font-family:sans-serif;font-style:normal;font-weight:700" x="-86.114" y="-94.4889">
      <tspan x="-86.114" y="-94.4889">Watcher</tspan>
      <tspan x="-86.114" y="-76.85">CLI</tspan>
    </text>
  </g>
  <g>
    <rect style="fill: #ffffff" x="-155.614" y="-29.5" width="117" height="56"/>
    <rect style="fill: none; fill-opacity:0; stroke-width: 2; stroke: #000000" x="-155.614" y="-29.5" width="117" height="56"/>
    <text font-size="12.8" style="fill: #000000;text-anchor:middle;font-family:sans-serif;font-style:normal;font-weight:700" x="-97.114" y="2.4">
      <tspan x="-97.114" y="2.4">Horizon</tspan>
    </text>
  </g>
  <g>
    <rect style="fill: #ffb400" x="-111.614" y="12.6" width="90" height="59.9"/>
    <path style="fill: #ffb400" d="M -111.614,12.6 A 10,10 0 0 0 -121.614,22.6 L -111.614,22.6 z"/>
    <path style="fill: #ffb400" d="M -11.614,22.6 A 10,10 0 0 0 -21.614,12.6 L -21.614,22.6 z"/>
    <rect style="fill: #ffb400" x="-121.614" y="22.6" width="110" height="39.9"/>
    <path style="fill: #ffb400" d="M -121.614,62.5 A 10,10 0 0 0 -111.614,72.5 L -111.614,62.5 z"/>
    <path style="fill: #ffb400" d="M -21.614,72.5 A 10,10 0 0 0 -11.614,62.5 L -21.614,62.5 z"/>
    <line style="fill: none; fill-opacity:0; stroke-width: 4; stroke: #ffffff" x1="-111.614" y1="12.6" x2="-21.614" y2="12.6"/>
    <line style="fill: none; fill-opacity:0; stroke-width: 4; stroke: #ffffff" x1="-111.614" y1="72.5" x2="-21.614" y2="72.5"/>
    <path style="fill: none; fill-opacity:0; stroke-width: 4; stroke: #ffffff" d="M -111.614,12.6 A 10,10 0 0 0 -121.614,22.6"/>
    <path style="fill: none; fill-opacity:0; stroke-width: 4; stroke: #ffffff" d="M -11.614,22.6 A 10,10 0 0 0 -21.614,12.6"/>
    <line style="fill: none; fill-opacity:0; stroke-width: 4; stroke: #ffffff" x1="-121.614" y1="22.6" x2="-121.614" y2="62.5"/>
    <line style="fill: none; fill-opacity:0; stroke-width: 4; stroke: #ffffff" x1="-11.614" y1="22.6" x2="-11.614" y2="62.5"/>
    <path style="fill: none; fill-opacity:0; stroke-width: 4; stroke: #ffffff" d="M -121.614,62.5 A 10,10 0 0 0 -111.614,72.5"/>
    <path style="fill: none; fill-opacity:0; stroke-width: 4; stroke: #ffffff" d="M -21.614,72.5 A 10,10 0 0 0 -11.614,62.5"/>
    <text font-size="14.1111" style="fill: #ffffff;text-anchor:middle;font-family:sans-serif;font-style:normal;font-weight:700" x="-66.614" y="38.0111">
      <tspan x="-66.614" y="38.0111">Watcher</tspan>
      <tspan x="-66.614" y="55.65">plugin</tspan>
    </text>
  </g>
  <g>
    <rect style="fill: #ffffff" x="644.986" y="-121.4" width="117" height="56"/>
    <rect style="fill: none; fill-opacity:0; stroke-width: 2; stroke: #000000" x="644.986" y="-121.4" width="117" height="56"/>
    <text font-size="12.8" style="fill: #000000;text-anchor:middle;font-family:sans-serif;font-style:normal;font-weight:700" x="703.486" y="-89.5">
      <tspan x="703.486" y="-89.5">Nova</tspan>
    </text>
  </g>
  <g>
    <rect style="fill: #ffffff" x="822.786" y="122.5" width="167.6" height="59.501"/>
    <rect style="fill: none; fill-opacity:0; stroke-width: 2; stroke: #000000" x="822.786" y="122.5" width="167.6" height="59.501"/>
    <text font-size="12.8" style="fill: #000000;text-anchor:middle;font-family:sans-serif;font-style:normal;font-weight:700" x="906.586" y="156.151">
      <tspan x="906.586" y="156.151">MariaDB Database</tspan>
    </text>
  </g>
  <g>
    <line style="fill: none; fill-opacity:0; stroke-width: 2; stroke: #000000" x1="337" y1="-121" x2="387.264" y2="-121"/>
    <polygon style="fill: #000000" points="394.764,-121 384.764,-116 387.264,-121 384.764,-126 "/>
    <polygon style="fill: none; fill-opacity:0; stroke-width: 2; stroke: #000000" points="394.764,-121 384.764,-116 387.264,-121 384.764,-126 "/>
  </g>
  <g>
    <line style="fill: none; fill-opacity:0; stroke-width: 2; stroke-dasharray: 6; stroke: #000000" x1="346.121" y1="-92.8795" x2="387.265" y2="-92.3705"/>
    <polygon style="fill: #000000" points="338.622,-92.9723 348.683,-97.8482 346.121,-92.8795 348.559,-87.849 "/>
    <polygon style="fill: none; fill-opacity:0; stroke-width: 2; stroke: #000000" points="338.622,-92.9723 348.683,-97.8482 346.121,-92.8795 348.559,-87.849 "/>
    <polygon style="fill: #000000" points="394.764,-92.2777 384.703,-87.4018 387.265,-92.3705 384.827,-97.401 "/>
    <polygon style="fill: none; fill-opacity:0; stroke-width: 2; stroke: #000000" points="394.764,-92.2777 384.703,-87.4018 387.265,-92.3705 384.827,-97.401 "/>
  </g>
  <g>
    <rect style="fill: #ffffff" x="522.61" y="138.001" width="137.55" height="38"/>
    <rect style="fill: none; fill-opacity:0; stroke-width: 2; stroke: #000000" x="522.61" y="138.001" width="137.55" height="38"/>
    <text font-size="12.8" style="fill: #000000;text-anchor:middle;font-family:sans-serif;font-style:normal;font-weight:normal" x="591.385" y="160.901">
      <tspan x="591.385" y="160.901">Ceilometer API</tspan>
    </text>
  </g>
  <g>
    <line style="fill: none; fill-opacity:0; stroke-width: 2; stroke: #000000" x1="409.386" y1="106.75" x2="374.606" y2="138.218"/>
    <polygon style="fill: #000000" points="369.044,143.25 373.105,132.833 374.606,138.218 379.814,140.248 "/>
    <polygon style="fill: none; fill-opacity:0; stroke-width: 2; stroke: #000000" points="369.044,143.25 373.105,132.833 374.606,138.218 379.814,140.248 "/>
  </g>
  <g>
    <line style="fill: none; fill-opacity:0; stroke-width: 2; stroke: #000000" x1="-23.614" y1="-89.95" x2="44.0985" y2="-61.7438"/>
    <polygon style="fill: #000000" points="51.0219,-58.8598 39.8681,-58.0896 44.0985,-61.7438 43.7134,-67.3207 "/>
    <polygon style="fill: none; fill-opacity:0; stroke-width: 2; stroke: #000000" points="51.0219,-58.8598 39.8681,-58.0896 44.0985,-61.7438 43.7134,-67.3207 "/>
  </g>
  <g>
    <line style="fill: none; fill-opacity:0; stroke-width: 2; stroke: #000000" x1="-11.614" y1="42.55" x2="46.0184" y2="-12.0538"/>
    <polygon style="fill: #000000" points="51.4628,-17.2121 47.6424,-6.70471 46.0184,-12.0538 40.7647,-13.9639 "/>
    <polygon style="fill: none; fill-opacity:0; stroke-width: 2; stroke: #000000" points="51.4628,-17.2121 47.6424,-6.70471 46.0184,-12.0538 40.7647,-13.9639 "/>
  </g>
  <g>
    <rect style="fill: #ffa200" x="422.36" y="60.1008" width="92.025" height="49.9"/>
    <path style="fill: #ffa200" d="M 422.36,60.1008 A 10,10 0 0 0 412.36,70.1008 L 422.36,70.1008 z"/>
    <path style="fill: #ffa200" d="M 524.385,70.1008 A 10,10 0 0 0 514.385,60.1008 L 514.385,70.1008 z"/>
    <rect style="fill: #ffa200" x="412.36" y="70.1008" width="112.025" height="29.9"/>
    <path style="fill: #ffa200" d="M 412.36,100.001 A 10,10 0 0 0 422.36,110.001 L 422.36,100.001 z"/>
    <path style="fill: #ffa200" d="M 514.385,110.001 A 10,10 0 0 0 524.385,100.001 L 514.385,100.001 z"/>
    <line style="fill: none; fill-opacity:0; stroke-width: 4; stroke: #ffffff" x1="422.36" y1="60.1008" x2="514.385" y2="60.1008"/>
    <line style="fill: none; fill-opacity:0; stroke-width: 4; stroke: #ffffff" x1="422.36" y1="110.001" x2="514.385" y2="110.001"/>
    <path style="fill: none; fill-opacity:0; stroke-width: 4; stroke: #ffffff" d="M 422.36,60.1008 A 10,10 0 0 0 412.36,70.1008"/>
    <path style="fill: none; fill-opacity:0; stroke-width: 4; stroke: #ffffff" d="M 524.385,70.1008 A 10,10 0 0 0 514.385,60.1008"/>
    <line style="fill: none; fill-opacity:0; stroke-width: 4; stroke: #ffffff" x1="412.36" y1="70.1008" x2="412.36" y2="100.001"/>
    <line style="fill: none; fill-opacity:0; stroke-width: 4; stroke: #ffffff" x1="524.385" y1="70.1008" x2="524.385" y2="100.001"/>
    <path style="fill: none; fill-opacity:0; stroke-width: 4; stroke: #ffffff" d="M 412.36,100.001 A 10,10 0 0 0 422.36,110.001"/>
    <path style="fill: none; fill-opacity:0; stroke-width: 4; stroke: #ffffff" d="M 514.385,110.001 A 10,10 0 0 0 524.385,100.001"/>
    <text font-size="14.1111" style="fill: #ffffff;text-anchor:middle;font-family:sans-serif;font-style:normal;font-weight:700" x="468.372" y="89.3314">
      <tspan x="468.372" y="89.3314">Strategy</tspan>
    </text>
  </g>
  <g>
    <line style="fill: none; fill-opacity:0; stroke-width: 2; stroke: #000000" x1="529.386" y1="109.75" x2="550.79" y2="126.911"/>
    <polygon style="fill: #000000" points="556.641,131.602 545.712,129.248 550.79,126.911 551.967,121.446 "/>
    <polygon style="fill: none; fill-opacity:0; stroke-width: 2; stroke: #000000" points="556.641,131.602 545.712,129.248 550.79,126.911 551.967,121.446 "/>
  </g>
  <g>
    <rect style="fill: #ffa200" x="625.488" y="60.1008" width="80.5125" height="49.9"/>
    <path style="fill: #ffa200" d="M 625.488,60.1008 A 10,10 0 0 0 615.488,70.1008 L 625.488,70.1008 z"/>
    <path style="fill: #ffa200" d="M 716,70.1008 A 10,10 0 0 0 706,60.1008 L 706,70.1008 z"/>
    <rect style="fill: #ffa200" x="615.488" y="70.1008" width="100.512" height="29.9"/>
    <path style="fill: #ffa200" d="M 615.488,100.001 A 10,10 0 0 0 625.488,110.001 L 625.488,100.001 z"/>
    <path style="fill: #ffa200" d="M 706,110.001 A 10,10 0 0 0 716,100.001 L 706,100.001 z"/>
    <line style="fill: none; fill-opacity:0; stroke-width: 4; stroke: #ffffff" x1="625.488" y1="60.1008" x2="706" y2="60.1008"/>
    <line style="fill: none; fill-opacity:0; stroke-width: 4; stroke: #ffffff" x1="625.488" y1="110.001" x2="706" y2="110.001"/>
    <path style="fill: none; fill-opacity:0; stroke-width: 4; stroke: #ffffff" d="M 625.488,60.1008 A 10,10 0 0 0 615.488,70.1008"/>
    <path style="fill: none; fill-opacity:0; stroke-width: 4; stroke: #ffffff" d="M 716,70.1008 A 10,10 0 0 0 706,60.1008"/>
    <line style="fill: none; fill-opacity:0; stroke-width: 4; stroke: #ffffff" x1="615.488" y1="70.1008" x2="615.488" y2="100.001"/>
    <line style="fill: none; fill-opacity:0; stroke-width: 4; stroke: #ffffff" x1="716" y1="70.1008" x2="716" y2="100.001"/>
    <path style="fill: none; fill-opacity:0; stroke-width: 4; stroke: #ffffff" d="M 615.488,100.001 A 10,10 0 0 0 625.488,110.001"/>
    <path style="fill: none; fill-opacity:0; stroke-width: 4; stroke: #ffffff" d="M 706,110.001 A 10,10 0 0 0 716,100.001"/>
    <text font-size="14.1111" style="fill: #ffffff;text-anchor:middle;font-family:sans-serif;font-style:normal;font-weight:700" x="665.744" y="89.3314">
      <tspan x="665.744" y="89.3314">Planner</tspan>
    </text>
  </g>
  <g>
    <line style="fill: none; fill-opacity:0; stroke-width: 2; stroke: #000000" x1="337" y1="4" x2="387.264" y2="4"/>
    <polygon style="fill: #000000" points="394.764,4 384.764,9 387.264,4 384.764,-1 "/>
    <polygon style="fill: none; fill-opacity:0; stroke-width: 2; stroke: #000000" points="394.764,4 384.764,9 387.264,4 384.764,-1 "/>
  </g>
  <g>
    <line style="fill: none; fill-opacity:0; stroke-width: 2; stroke: #000000" x1="148.386" y1="-60.25" x2="218.65" y2="-60.25"/>
    <polygon style="fill: #000000" points="226.15,-60.25 216.15,-55.25 218.65,-60.25 216.15,-65.25 "/>
    <polygon style="fill: none; fill-opacity:0; stroke-width: 2; stroke: #000000" points="226.15,-60.25 216.15,-55.25 218.65,-60.25 216.15,-65.25 "/>
  </g>
  <g>
    <line style="fill: none; fill-opacity:0; stroke-width: 2; stroke: #000000" x1="581.486" y1="-96.9139" x2="633.15" y2="-96.4987"/>
    <polygon style="fill: #000000" points="640.65,-96.4384 630.61,-91.519 633.15,-96.4987 630.691,-101.519 "/>
    <polygon style="fill: none; fill-opacity:0; stroke-width: 2; stroke: #000000" points="640.65,-96.4384 630.61,-91.519 633.15,-96.4987 630.691,-101.519 "/>
  </g>
  <g>
    <path style="fill: #ffb400" d="M 844 38.3333 C 865.877,23.0833 876.816,18 898.693,18 C 920.57,18 931.509,23.0833 953.386,38.3333 L 953.386,119.667 C 931.509,134.917 920.57,140 898.693,140 C 876.816,140 865.877,134.917 844,119.667 L 844,38.3333z"/>
    <path style="fill: none; fill-opacity:0; stroke-width: 4; stroke: #ffffff" d="M 844 38.3333 C 865.877,23.0833 876.816,18 898.693,18 C 920.57,18 931.509,23.0833 953.386,38.3333 L 953.386,119.667 C 931.509,134.917 920.57,140 898.693,140 C 876.816,140 865.877,134.917 844,119.667 L 844,38.3333"/>
    <path style="fill: none; fill-opacity:0; stroke-width: 4; stroke: #ffffff" d="M 844 38.3333 C 865.877,53.5833 876.816,58.6667 898.693,58.6667 C 920.57,58.6667 931.509,53.5833 953.386,38.3333"/>
    <text font-size="12.8" style="fill: #ffffff;text-anchor:middle;font-family:sans-serif;font-style:normal;font-weight:700" x="898.693" y="93.1667">
      <tspan x="898.693" y="93.1667">Watcher DB</tspan>
    </text>
  </g>
  <g>
    <path style="fill: #ff5050" d="M 285.054 172.933 C 312.92,157.683 326.854,152.6 354.72,152.6 C 382.586,152.6 396.52,157.683 424.386,172.933 L 424.386,254.267 C 396.52,269.517 382.586,274.6 354.72,274.6 C 326.854,274.6 312.92,269.517 285.054,254.267 L 285.054,172.933z"/>
    <path style="fill: none; fill-opacity:0; stroke-width: 4; stroke: #ffffff" d="M 285.054 172.933 C 312.92,157.683 326.854,152.6 354.72,152.6 C 382.586,152.6 396.52,157.683 424.386,172.933 L 424.386,254.267 C 396.52,269.517 382.586,274.6 354.72,274.6 C 326.854,274.6 312.92,269.517 285.054,254.267 L 285.054,172.933"/>
    <path style="fill: none; fill-opacity:0; stroke-width: 4; stroke: #ffffff" d="M 285.054 172.933 C 312.92,188.183 326.854,193.267 354.72,193.267 C 382.586,193.267 396.52,188.183 424.386,172.933"/>
    <text font-size="12.8" style="fill: #ffffff;text-anchor:middle;font-family:sans-serif;font-style:normal;font-weight:700" x="354.72" y="227.767">
      <tspan x="354.72" y="227.767">Cluster Model DB</tspan>
    </text>
  </g>
  <g>
    <path style="fill: #ff5050" d="M 522.176 185.933 C 551.618,170.683 566.339,165.6 595.78,165.6 C 625.222,165.6 639.943,170.683 669.385,185.933 L 669.385,267.267 C 639.943,282.517 625.222,287.6 595.78,287.6 C 566.339,287.6 551.618,282.517 522.176,267.267 L 522.176,185.933z"/>
    <path style="fill: none; fill-opacity:0; stroke-width: 4; stroke: #ffffff" d="M 522.176 185.933 C 551.618,170.683 566.339,165.6 595.78,165.6 C 625.222,165.6 639.943,170.683 669.385,185.933 L 669.385,267.267 C 639.943,282.517 625.222,287.6 595.78,287.6 C 566.339,287.6 551.618,282.517 522.176,267.267 L 522.176,185.933"/>
    <path style="fill: none; fill-opacity:0; stroke-width: 4; stroke: #ffffff" d="M 522.176 185.933 C 551.618,201.183 566.339,206.267 595.78,206.267 C 625.222,206.267 639.943,201.183 669.385,185.933"/>
    <text font-size="12.8" style="fill: #ffffff;text-anchor:middle;font-family:sans-serif;font-style:normal;font-weight:700" x="595.78" y="240.767">
      <tspan x="595.78" y="240.767">Cluster History DB</tspan>
    </text>
  </g>
  <g>
    <polyline style="fill: none; fill-opacity:0; stroke-width: 2; stroke: #000000" points="96.386,-142.999 96.386,-205.998 898.692,-205.998 898.692,8.26393 "/>
    <polygon style="fill: #000000" points="898.692,15.7639 893.692,5.76393 898.692,8.26393 903.692,5.76393 "/>
    <polygon style="fill: none; fill-opacity:0; stroke-width: 2; stroke: #000000" points="898.692,15.7639 893.692,5.76393 898.692,8.26393 903.692,5.76393 "/>
  </g>
  <g>
    <polyline style="fill: none; fill-opacity:0; stroke-width: 2; stroke: #000000" points="583,-142.25 583,-141.25 870,-141.25 870,7.01393 "/>
    <polygon style="fill: #000000" points="870,14.5139 865,4.51393 870,7.01393 875,4.51393 "/>
    <polygon style="fill: none; fill-opacity:0; stroke-width: 2; stroke: #000000" points="870,14.5139 865,4.51393 870,7.01393 875,4.51393 "/>
  </g>
  <g>
    <line style="fill: none; fill-opacity:0; stroke-width: 2; stroke: #000000" x1="752.386" y1="60.75" x2="824.64" y2="60.9708"/>
    <polygon style="fill: #000000" points="832.14,60.9938 822.125,65.9632 824.64,60.9708 822.156,55.9632 "/>
    <polygon style="fill: none; fill-opacity:0; stroke-width: 2; stroke: #000000" points="832.14,60.9938 822.125,65.9632 824.64,60.9708 822.156,55.9632 "/>
  </g>
</svg>
